<svg width="48" height="53" viewBox="0 0 48 53" fill="none" xmlns="http://www.w3.org/2000/svg">
<g clip-path="url(#clip0_33_2561)">
<path d="M22.4162 25.267L0.19873 48.5167C0.44823 49.3999 0.896589 50.2144 1.50953 50.8979C2.12248 51.5815 2.88378 52.116 3.73524 52.4606C4.5867 52.8052 5.50578 52.9509 6.42223 52.8863C7.33867 52.8218 8.22821 52.5489 9.02285 52.0883L34.0217 37.8675L22.4162 25.267Z" fill="#EA4335"/>
<path d="M44.882 21.315L34.0717 15.1303L21.9033 25.7959L34.1212 37.8342L44.8492 31.7158C45.7996 31.2187 46.5956 30.4713 47.151 29.5546C47.7065 28.6379 48.0001 27.5868 48.0001 26.5153C48.0001 25.4438 47.7065 24.3927 47.151 23.476C46.5956 22.5593 45.7996 21.8119 44.8492 21.3148H44.8824L44.882 21.315Z" fill="#FBBC04"/>
<path d="M0.198812 4.39862C0.0645201 4.89451 -0.00233021 5.40619 6.19939e-05 5.91989V46.9953C0.00145434 47.5088 0.0682404 48.02 0.198812 48.5167L23.1779 25.8623L0.198812 4.39862Z" fill="#4285F4"/>
<path d="M22.5817 26.4577L34.0714 15.1305L9.10573 0.843329C8.16642 0.293866 7.09808 0.00288085 6.00954 1.14859e-05C3.30823 -0.00523233 0.933355 1.78553 0.19873 4.38216L22.5817 26.4577Z" fill="#34A853"/>
</g>
<defs>
<clipPath id="clip0_33_2561">
<rect width="48" height="53" fill="white"/>
</clipPath>
</defs>
</svg>
