<svg width="53" height="53" viewBox="0 0 53 53" fill="none" xmlns="http://www.w3.org/2000/svg">
<g clip-path="url(#clip0_33_2747)">
<path d="M11.607 0H41.393C47.8035 0 53 5.19648 53 11.607V41.393C53 47.8035 47.8035 53 41.393 53H11.607C5.19648 53 0 47.8035 0 41.393V11.607C0 5.19648 5.19648 0 11.607 0Z" fill="url(#paint0_linear_33_2747)"/>
<path d="M16.9851 38.4685L16.9901 38.4702L15.1779 41.6087C14.5165 42.7545 13.0515 43.147 11.9058 42.4855C10.7603 41.8241 10.3676 40.3591 11.029 39.2134L12.364 36.9013L12.4921 36.6793C12.7209 36.3506 13.2854 35.7829 14.4148 35.8897C14.4148 35.8897 17.0725 36.1781 17.2648 37.5594C17.2648 37.5594 17.2909 38.0139 16.9851 38.4685ZM42.6866 30.4522H37.0359C36.651 30.4264 36.4831 30.2889 36.4168 30.209L36.4127 30.2017L30.3639 19.7247L30.356 19.7299L29.9933 19.2098C29.3987 18.3006 28.4546 20.6259 28.4546 20.6259C27.3273 23.2171 28.6147 26.163 29.0633 27.0534L37.465 41.6056C38.1263 42.7511 39.5913 43.1439 40.7372 42.4822C41.8827 41.8207 42.2754 40.3558 41.6137 39.2101L39.513 35.5713C39.4722 35.4831 39.4014 35.2438 39.8322 35.2427H42.6866C44.0095 35.2427 45.0819 34.1703 45.0819 32.8474C45.0819 31.5245 44.0095 30.4522 42.6866 30.4522ZM31.711 33.7084C31.711 33.7084 32.0127 35.2427 30.8456 35.2427H9.95639C8.63346 35.2427 7.56104 34.1703 7.56104 32.8474C7.56104 31.5245 8.63346 30.452 9.95639 30.452H15.3268C16.1938 30.4019 16.3992 29.9013 16.3992 29.9013L16.4042 29.9038L23.4142 17.7619L23.4122 17.7614C23.5399 17.5269 23.4335 17.3051 23.4151 17.2702L21.0998 13.2602C20.4384 12.1147 20.8309 10.6495 21.9766 9.98824C23.1223 9.32678 24.5873 9.7191 25.2488 10.8648L26.3224 12.7246L27.3942 10.8681C28.0557 9.72262 29.5206 9.32989 30.6663 9.99156C31.8121 10.653 32.2046 12.1178 31.5431 13.2635L21.7882 30.1593C21.7456 30.2622 21.7325 30.4237 22.0499 30.452H27.8807L27.882 30.509C27.882 30.509 31.252 30.5614 31.711 33.7084Z" fill="white"/>
</g>
<defs>
<linearGradient id="paint0_linear_33_2747" x1="2650" y1="0" x2="2650" y2="5300" gradientUnits="userSpaceOnUse">
<stop stop-color="#17C9FB"/>
<stop offset="1" stop-color="#1A74E8"/>
</linearGradient>
<clipPath id="clip0_33_2747">
<rect width="53" height="53" fill="white"/>
</clipPath>
</defs>
</svg>
