<svg width="21" height="21" viewBox="0 0 21 21" fill="none" xmlns="http://www.w3.org/2000/svg">
<path d="M19.8912 0.00600004L19.9972 0L20.1272 0.0079999L20.2172 0.0239999L20.3402 0.059L20.4472 0.105L20.5472 0.162L20.6372 0.229L20.7192 0.304L20.7712 0.363L20.8532 0.479L20.9052 0.575C20.9522 0.675 20.9822 0.781 20.9952 0.891L21.0002 0.997C21.0002 1.072 20.9922 1.146 20.9762 1.217L20.9412 1.34L14.4092 19.417C14.2854 19.6866 14.0868 19.9149 13.837 20.075C13.5873 20.2351 13.2968 20.3201 13.0002 20.32C12.733 20.3208 12.4702 20.2525 12.2373 20.1216C12.0044 19.9907 11.8093 19.8017 11.6712 19.573L11.6062 19.446L8.25418 12.744L1.58418 9.408C1.33738 9.29513 1.12454 9.11943 0.966949 8.89849C0.809358 8.67755 0.71254 8.4191 0.686176 8.149L0.680176 8C0.680176 7.44 0.981176 6.928 1.52118 6.63L1.66118 6.56L19.6782 0.0539999L19.7842 0.0239999L19.8912 0.00600004Z" fill="white"/>
</svg>
